<svg width="24" height="32" viewBox="0 0 24 32" fill="none" xmlns="http://www.w3.org/2000/svg">
<path d="M15.3333 24V22.5C15.3333 20.6875 17.5236 18.9731 18.9445 17.75C20.9472 16.0269 22 13.7119 22 11C22 6.00003 17.5743 2.00003 12 2.00003C10.6858 1.99674 9.38377 2.22727 8.16886 2.6784C6.95395 3.12952 5.85011 3.79233 4.92079 4.62871C3.99148 5.4651 3.25502 6.45856 2.75378 7.55198C2.25253 8.6454 1.99637 9.8172 2.00004 11C2.00004 13.615 3.09795 16.0869 5.05559 17.75C6.46878 18.9506 8.66669 20.6688 8.66669 22.5V24M9.7778 30H14.2222M8.66669 27H15.3333M12 24V16" stroke="#69D16E" stroke-width="2.8" stroke-linecap="round" stroke-linejoin="round"/>
</svg>
