<svg width="28" height="29" viewBox="0 0 28 29" fill="none" xmlns="http://www.w3.org/2000/svg">
<path fill-rule="evenodd" clip-rule="evenodd" d="M13.9745 0H14.1418C16.9325 0 19.1406 -2.00992e-08 20.8684 0.257628C22.6529 0.524698 24.0692 1.08581 25.1712 2.31056C26.2597 3.51912 26.7467 5.0487 26.9787 6.97753C27.2093 8.87535 27.2093 11.31 27.2093 14.4299V14.5701C27.2093 17.69 27.2093 20.1247 26.98 22.0225C26.7467 23.9513 26.2597 25.4809 25.1726 26.6894C24.0692 27.9142 22.6543 28.4753 20.8684 28.7424C19.1406 29 16.9325 29 14.1431 29H13.9732C11.1838 29 8.97573 29 7.24787 28.7424C5.46201 28.4753 4.04708 27.9142 2.94508 26.6894C1.85656 25.4809 1.36963 23.9513 1.13763 22.0225C0.906982 20.1247 0.906982 17.69 0.906982 14.5701V14.4299C0.906982 11.31 0.906983 8.87535 1.13628 6.97888C1.36963 5.04735 1.85656 3.51912 2.94373 2.31056C4.04708 1.08581 5.46201 0.524698 7.24787 0.257628C8.97573 -2.00992e-08 11.1838 0 13.9745 0ZM7.54731 2.2593C6.02717 2.48591 5.12345 2.91349 4.44768 3.66344C3.75977 4.42958 3.35512 5.47898 3.1447 7.22167C2.93159 8.98326 2.93024 11.2952 2.93024 14.5C2.93024 17.7048 2.93159 20.0167 3.14605 21.7783C3.35647 23.521 3.75842 24.5704 4.44768 25.3366C5.12345 26.0865 6.02717 26.5141 7.54731 26.7407C9.10791 26.974 11.1649 26.9767 14.0581 26.9767C16.9514 26.9767 19.0084 26.974 20.569 26.7407C22.0891 26.5141 22.9928 26.0865 23.6673 25.3366C24.3579 24.5704 24.7598 23.521 24.9716 21.7783C25.1847 20.0167 25.1861 17.7048 25.1861 14.5C25.1861 11.2952 25.1847 8.98326 24.9702 7.22167C24.7598 5.47898 24.3579 4.42958 23.6686 3.66344C22.9928 2.91349 22.0891 2.48591 20.569 2.2593C19.0084 2.02595 16.9514 2.02326 14.0581 2.02326C11.1649 2.02326 9.10791 2.02595 7.54731 2.2593ZM9.89833 5.39535H18.218C18.7305 5.39535 19.1756 5.39535 19.5641 5.49921C20.0785 5.63697 20.5476 5.90768 20.9243 6.28413C21.301 6.66058 21.572 7.12952 21.7101 7.64386C21.8153 8.03502 21.8153 8.47744 21.814 8.9927V9.21795C21.814 9.73051 21.814 10.1756 21.7101 10.5641C21.5723 11.0785 21.3016 11.5476 20.9252 11.9243C20.5487 12.301 20.0798 12.572 19.5654 12.7101C19.1743 12.8153 18.7319 12.8153 18.2166 12.814H9.89968C9.38712 12.814 8.94201 12.814 8.55354 12.7101C8.03912 12.5723 7.57 12.3016 7.19331 11.9252C6.81663 11.5487 6.54563 11.0798 6.40754 10.5654C6.30233 10.1743 6.30368 9.73186 6.30368 9.21661V8.99135C6.30368 8.47879 6.30368 8.03367 6.40754 7.64521C6.5453 7.13079 6.81601 6.66167 7.19246 6.28498C7.56891 5.90829 8.03786 5.6373 8.55219 5.49921C8.94336 5.394 9.38577 5.39535 9.90103 5.39535M10.0116 7.4186C9.31968 7.4186 9.17131 7.4267 9.07554 7.45367C8.90415 7.49966 8.74787 7.58993 8.62239 7.71541C8.49691 7.84089 8.40665 7.99717 8.36066 8.16856C8.33368 8.26433 8.32559 8.41135 8.32559 9.10465C8.32559 9.79661 8.33368 9.94498 8.36066 10.0407C8.40665 10.2121 8.49691 10.3684 8.62239 10.4939C8.74787 10.6194 8.90415 10.7096 9.07554 10.7556C9.17131 10.7826 9.31833 10.7907 10.0116 10.7907H18.1047C18.7966 10.7907 18.945 10.7826 19.0408 10.7556C19.2121 10.7096 19.3684 10.6194 19.4939 10.4939C19.6194 10.3684 19.7096 10.2121 19.7556 10.0407C19.7826 9.94498 19.7907 9.79795 19.7907 9.10465C19.7907 8.4127 19.7826 8.26433 19.7556 8.16856C19.7096 7.99717 19.6194 7.84089 19.4939 7.71541C19.3684 7.58993 19.2121 7.49966 19.0408 7.45367C18.945 7.4267 18.798 7.4186 18.1047 7.4186H10.0116Z" fill="#DD816B"/>
<path d="M10.0116 15.8488C10.0116 16.2066 9.86953 16.5497 9.61657 16.8026C9.36362 17.0556 9.02054 17.1977 8.6628 17.1977C8.30507 17.1977 7.96199 17.0556 7.70903 16.8026C7.45607 16.5497 7.31396 16.2066 7.31396 15.8488C7.31396 15.4911 7.45607 15.148 7.70903 14.8951C7.96199 14.6421 8.30507 14.5 8.6628 14.5C9.02054 14.5 9.36362 14.6421 9.61657 14.8951C9.86953 15.148 10.0116 15.4911 10.0116 15.8488ZM10.0116 21.2442C10.0116 21.6019 9.86953 21.945 9.61657 22.198C9.36362 22.4509 9.02054 22.593 8.6628 22.593C8.30507 22.593 7.96199 22.4509 7.70903 22.198C7.45607 21.945 7.31396 21.6019 7.31396 21.2442C7.31396 20.8865 7.45607 20.5434 7.70903 20.2904C7.96199 20.0375 8.30507 19.8953 8.6628 19.8953C9.02054 19.8953 9.36362 20.0375 9.61657 20.2904C9.86953 20.5434 10.0116 20.8865 10.0116 21.2442ZM15.407 15.8488C15.407 16.2066 15.2649 16.5497 15.0119 16.8026C14.759 17.0556 14.4159 17.1977 14.0582 17.1977C13.7004 17.1977 13.3573 17.0556 13.1044 16.8026C12.8514 16.5497 12.7093 16.2066 12.7093 15.8488C12.7093 15.4911 12.8514 15.148 13.1044 14.8951C13.3573 14.6421 13.7004 14.5 14.0582 14.5C14.4159 14.5 14.759 14.6421 15.0119 14.8951C15.2649 15.148 15.407 15.4911 15.407 15.8488ZM15.407 21.2442C15.407 21.6019 15.2649 21.945 15.0119 22.198C14.759 22.4509 14.4159 22.593 14.0582 22.593C13.7004 22.593 13.3573 22.4509 13.1044 22.198C12.8514 21.945 12.7093 21.6019 12.7093 21.2442C12.7093 20.8865 12.8514 20.5434 13.1044 20.2904C13.3573 20.0375 13.7004 19.8953 14.0582 19.8953C14.4159 19.8953 14.759 20.0375 15.0119 20.2904C15.2649 20.5434 15.407 20.8865 15.407 21.2442ZM20.8023 15.8488C20.8023 16.2066 20.6602 16.5497 20.4073 16.8026C20.1543 17.0556 19.8112 17.1977 19.4535 17.1977C19.0958 17.1977 18.7527 17.0556 18.4997 16.8026C18.2468 16.5497 18.1047 16.2066 18.1047 15.8488C18.1047 15.4911 18.2468 15.148 18.4997 14.8951C18.7527 14.6421 19.0958 14.5 19.4535 14.5C19.8112 14.5 20.1543 14.6421 20.4073 14.8951C20.6602 15.148 20.8023 15.4911 20.8023 15.8488ZM20.8023 21.2442C20.8023 21.6019 20.6602 21.945 20.4073 22.198C20.1543 22.4509 19.8112 22.593 19.4535 22.593C19.0958 22.593 18.7527 22.4509 18.4997 22.198C18.2468 21.945 18.1047 21.6019 18.1047 21.2442C18.1047 20.8865 18.2468 20.5434 18.4997 20.2904C18.7527 20.0375 19.0958 19.8953 19.4535 19.8953C19.8112 19.8953 20.1543 20.0375 20.4073 20.2904C20.6602 20.5434 20.8023 20.8865 20.8023 21.2442Z" fill="#DD816B"/>
</svg>
