<svg width="20" height="21" viewBox="0 0 20 21" fill="none" xmlns="http://www.w3.org/2000/svg">
<path d="M6.95605 8.61102L10.0331 10.9192C10.2237 11.0622 10.4613 11.1278 10.6983 11.103C10.9353 11.0781 11.1541 10.9646 11.3109 10.7851L17.3449 3.88879" stroke="#F6F5F8" stroke-width="2.5" stroke-linecap="round"/>
<path d="M18.2891 10.4998C18.2891 12.2759 17.7328 14.0073 16.6983 15.451C15.6638 16.8947 14.2031 17.978 12.5213 18.5489C10.8395 19.1198 9.02108 19.1495 7.32152 18.634C5.62195 18.1184 4.12657 17.0834 3.04542 15.6743C1.96427 14.2652 1.35165 12.5529 1.2936 10.7778C1.23556 9.00268 1.73501 7.25399 2.72181 5.7773C3.7086 4.30062 5.13317 3.17013 6.79542 2.54462C8.45768 1.91911 10.2741 1.82999 11.9896 2.28979" stroke="#F6F5F8" stroke-width="2.5" stroke-linecap="round"/>
</svg>
