<svg width="27" height="30" viewBox="0 0 27 30" fill="none" xmlns="http://www.w3.org/2000/svg">
<path d="M18.8998 2V4.6M21.3893 28C21.3893 25.9313 20.5675 23.9473 19.1047 22.4846C17.642 21.0218 15.658 20.2 13.5893 20.2C11.5206 20.2 9.53666 21.0218 8.07387 22.4846C6.61109 23.9473 5.78931 25.9313 5.78931 28M8.49981 2V4.6" stroke="#D1D64F" stroke-width="2.6" stroke-linecap="round" stroke-linejoin="round"/>
<path d="M13.7 20.2C16.5719 20.2 18.9 17.8719 18.9 15C18.9 12.1282 16.5719 9.80005 13.7 9.80005C10.8281 9.80005 8.5 12.1282 8.5 15C8.5 17.8719 10.8281 20.2 13.7 20.2Z" stroke="#D1D64F" stroke-width="2.6" stroke-linecap="round" stroke-linejoin="round"/>
<path d="M22.8 4.6001H4.6C3.16406 4.6001 2 5.76416 2 7.2001V25.4001C2 26.836 3.16406 28.0001 4.6 28.0001H22.8C24.2359 28.0001 25.4 26.836 25.4 25.4001V7.2001C25.4 5.76416 24.2359 4.6001 22.8 4.6001Z" stroke="#D1D64F" stroke-width="2.6" stroke-linecap="round" stroke-linejoin="round"/>
</svg>
