<svg width="22" height="17" viewBox="0 0 22 17" fill="none" xmlns="http://www.w3.org/2000/svg">
<path d="M8.00734 13.4995C8.00734 14.0298 7.79665 14.5385 7.42162 14.9135C7.04659 15.2885 6.53794 15.4992 6.00757 15.4992C5.4772 15.4992 4.96856 15.2885 4.59353 14.9135C4.2185 14.5385 4.00781 14.0298 4.00781 13.4995C4.00781 12.9691 4.2185 12.4604 4.59353 12.0854C4.96856 11.7104 5.4772 11.4997 6.00757 11.4997C6.53794 11.4997 7.04659 11.7104 7.42162 12.0854C7.79665 12.4604 8.00734 12.9691 8.00734 13.4995ZM18.0061 13.4995C18.0061 14.0298 17.7955 14.5385 17.4204 14.9135C17.0454 15.2885 16.5368 15.4992 16.0064 15.4992C15.476 15.4992 14.9674 15.2885 14.5923 14.9135C14.2173 14.5385 14.0066 14.0298 14.0066 13.4995C14.0066 12.9691 14.2173 12.4604 14.5923 12.0854C14.9674 11.7104 15.476 11.4997 16.0064 11.4997C16.5368 11.4997 17.0454 11.7104 17.4204 12.0854C17.7955 12.4604 18.0061 12.9691 18.0061 13.4995Z" stroke="#F6F5F8" stroke-width="2" stroke-linecap="round" stroke-linejoin="round"/>
<path d="M1.00781 6.50025H17.0059M1.00781 6.50025C1.00781 7.28015 0.987814 9.53987 1.01181 11.7596C1.04781 12.4795 1.16779 13.0794 4.00945 13.4994M1.00781 6.50025C1.22379 4.76046 2.16267 2.70071 2.64262 1.9208M8.00698 6.50025V1.50085M13.9963 13.4994H8.00198M1.02281 1.50085H11.2396C11.2396 1.50085 11.7795 1.50085 12.2595 1.54885C13.1584 1.63284 13.9133 2.04079 14.6692 3.06066C15.4691 4.14053 16.083 5.50837 16.8989 6.24028C18.2538 7.45613 20.8315 7.08017 20.9754 9.65986C21.0114 10.9797 21.0114 12.4195 20.9514 12.6595C20.8544 13.3664 20.3095 13.4814 19.6316 13.4994C19.0437 13.5154 18.3347 13.4714 17.9898 13.4994" stroke="#F6F5F8" stroke-width="2" stroke-linecap="round" stroke-linejoin="round"/>
</svg>
