<svg width="16" height="18" viewBox="0 0 16 18" fill="none" xmlns="http://www.w3.org/2000/svg">
<path d="M2 15.75H5V10.75C5 10.4667 5.096 10.2293 5.288 10.038C5.48 9.84667 5.71733 9.75067 6 9.75H10C10.2833 9.75 10.521 9.846 10.713 10.038C10.905 10.23 11.0007 10.4673 11 10.75V15.75H14V6.75L8 2.25L2 6.75V15.75ZM0 15.75V6.75C0 6.43333 0.0709998 6.13333 0.213 5.85C0.355 5.56667 0.550667 5.33333 0.8 5.15L6.8 0.65C7.15 0.383333 7.55 0.25 8 0.25C8.45 0.25 8.85 0.383333 9.2 0.65L15.2 5.15C15.45 5.33333 15.646 5.56667 15.788 5.85C15.93 6.13333 16.0007 6.43333 16 6.75V15.75C16 16.3 15.804 16.771 15.412 17.163C15.02 17.555 14.5493 17.7507 14 17.75H10C9.71667 17.75 9.47933 17.654 9.288 17.462C9.09667 17.27 9.00067 17.0327 9 16.75V11.75H7V16.75C7 17.0333 6.904 17.271 6.712 17.463C6.52 17.655 6.28267 17.7507 6 17.75H2C1.45 17.75 0.979333 17.5543 0.588 17.163C0.196666 16.7717 0.000666667 16.3007 0 15.75Z" fill="black"/>
</svg>
