<svg width="28" height="31" viewBox="0 0 28 31" fill="none" xmlns="http://www.w3.org/2000/svg">
<path fill-rule="evenodd" clip-rule="evenodd" d="M13.6151 0C17.2261 0 20.6891 1.43444 23.2424 3.98777C25.7958 6.5411 27.2302 10.0042 27.2302 13.6151C27.2302 18.2654 24.6948 22.0716 22.0232 24.8022C20.6884 26.1517 19.232 27.3752 17.6724 28.4571L17.028 28.8958L16.7254 29.097L16.1551 29.4601L15.6468 29.7702L15.0175 30.1363C14.5903 30.3801 14.107 30.5083 13.6151 30.5083C13.1233 30.5083 12.6399 30.3801 12.2128 30.1363L11.5834 29.7702L10.7968 29.2861L10.5063 29.097L9.88608 28.684C8.20361 27.5457 6.63646 26.2455 5.20702 24.8022C2.53544 22.0701 0 18.2654 0 13.6151C0 10.0042 1.43444 6.5411 3.98777 3.98777C6.5411 1.43444 10.0042 0 13.6151 0ZM13.6151 3.02558C10.8066 3.02558 8.1131 4.14126 6.12718 6.12718C4.14126 8.1131 3.02558 10.8066 3.02558 13.6151C3.02558 17.1278 4.94985 20.2109 7.3688 22.6858C8.40889 23.7387 9.53309 24.705 10.7302 25.5752L11.4231 26.0684C11.647 26.2247 11.8623 26.3699 12.069 26.5041L12.659 26.8823L13.1779 27.1985L13.6151 27.4541L14.3034 27.0472L14.8586 26.6992C15.1541 26.5116 15.4703 26.3014 15.8071 26.0684L16.5 25.5752C17.6971 24.705 18.8213 23.7387 19.8614 22.6858C22.2804 20.2124 24.2046 17.1278 24.2046 13.6151C24.2046 10.8066 23.089 8.1131 21.103 6.12718C19.1171 4.14126 16.4236 3.02558 13.6151 3.02558ZM13.6151 7.56395C15.22 7.56395 16.7591 8.20148 17.8939 9.33629C19.0287 10.4711 19.6663 12.0102 19.6663 13.6151C19.6663 15.22 19.0287 16.7591 17.8939 17.8939C16.7591 19.0287 15.22 19.6663 13.6151 19.6663C12.0102 19.6663 10.4711 19.0287 9.33629 17.8939C8.20148 16.7591 7.56395 15.22 7.56395 13.6151C7.56395 12.0102 8.20148 10.4711 9.33629 9.33629C10.4711 8.20148 12.0102 7.56395 13.6151 7.56395ZM13.6151 10.5895C12.8127 10.5895 12.0431 10.9083 11.4757 11.4757C10.9083 12.0431 10.5895 12.8127 10.5895 13.6151C10.5895 14.4175 10.9083 15.1871 11.4757 15.7545C12.0431 16.3219 12.8127 16.6407 13.6151 16.6407C14.4175 16.6407 15.1871 16.3219 15.7545 15.7545C16.3219 15.1871 16.6407 14.4175 16.6407 13.6151C16.6407 12.8127 16.3219 12.0431 15.7545 11.4757C15.1871 10.9083 14.4175 10.5895 13.6151 10.5895Z" fill="#6F86E4"/>
</svg>
