<svg viewBox="0 0 18 19" fill="none" xmlns="http://www.w3.org/2000/svg">
<path d="M8.65078 18V9.49913M7.8007 17.7705C8.05916 17.9197 8.35234 17.9983 8.65078 17.9983C8.94923 17.9983 9.24241 17.9197 9.50087 17.7705L15.4515 14.3701C15.7097 14.2211 15.9241 14.0067 16.0734 13.7486C16.2226 13.4904 16.3013 13.1976 16.3016 12.8995V6.09878C16.3013 5.80063 16.2226 5.50781 16.0734 5.24968C15.9241 4.99155 15.7097 4.7772 15.4515 4.62813L9.50087 1.22778C9.24241 1.07856 8.94923 1 8.65078 1C8.35234 1 8.05916 1.07856 7.8007 1.22778L1.85009 4.62813C1.59188 4.7772 1.37742 4.99155 1.22822 5.24968C1.07901 5.50781 1.00031 5.80063 1 6.09878V12.8995C1.00031 13.1976 1.07901 13.4904 1.22822 13.7486C1.37742 14.0067 1.59188 14.2211 1.85009 14.3701L7.8007 17.7705Z" stroke="#F6F5F8" stroke-width="1.5" stroke-linecap="round" stroke-linejoin="round"/>
<path d="M1.24656 5.24869L8.65082 9.49912L16.0551 5.24869M4.82543 2.92795L12.4762 7.3059" stroke="#F6F5F8" stroke-width="1.5" stroke-linecap="round" stroke-linejoin="round"/>
</svg>
