<svg width="13" height="18" viewBox="0 0 13 18" fill="none" xmlns="http://www.w3.org/2000/svg">
<path d="M6.5 13.4524C6.06902 13.4524 5.6557 13.2818 5.35095 12.9782C5.04621 12.6745 4.875 12.2627 4.875 11.8333C4.875 10.9348 5.59812 10.2143 6.5 10.2143C6.93098 10.2143 7.3443 10.3849 7.64905 10.6885C7.95379 10.9921 8.125 11.4039 8.125 11.8333C8.125 12.2627 7.95379 12.6745 7.64905 12.9782C7.3443 13.2818 6.93098 13.4524 6.5 13.4524ZM11.375 15.881V7.78571H1.625V15.881H11.375ZM11.375 6.16667C11.806 6.16667 12.2193 6.33724 12.524 6.64088C12.8288 6.94451 13 7.35632 13 7.78571V15.881C13 16.3104 12.8288 16.7222 12.524 17.0258C12.2193 17.3294 11.806 17.5 11.375 17.5H1.625C1.19402 17.5 0.780698 17.3294 0.475951 17.0258C0.171205 16.7222 0 16.3104 0 15.881V7.78571C0 6.88714 0.723125 6.16667 1.625 6.16667H2.4375V4.54762C2.4375 3.47412 2.86551 2.4446 3.62738 1.68552C4.38925 0.926444 5.42256 0.5 6.5 0.5C7.03349 0.5 7.56177 0.604695 8.05465 0.808107C8.54754 1.01152 8.99538 1.30966 9.37262 1.68552C9.74986 2.06138 10.0491 2.50758 10.2533 2.99866C10.4574 3.48974 10.5625 4.01608 10.5625 4.54762V6.16667H11.375ZM6.5 2.11905C5.85353 2.11905 5.23355 2.37491 4.77643 2.83036C4.31931 3.28581 4.0625 3.90352 4.0625 4.54762V6.16667H8.9375V4.54762C8.9375 3.90352 8.68069 3.28581 8.22357 2.83036C7.76645 2.37491 7.14647 2.11905 6.5 2.11905Z" fill="white"/>
</svg>
