<svg width="18" height="20" viewBox="0 0 18 20" fill="none" xmlns="http://www.w3.org/2000/svg">
<path fill-rule="evenodd" clip-rule="evenodd" d="M9.00021 6.74994C8.13824 6.74994 7.31158 7.09236 6.70207 7.70186C6.09257 8.31137 5.75015 9.13803 5.75015 10C5.75015 10.862 6.09257 11.6886 6.70207 12.2981C7.31158 12.9076 8.13824 13.2501 9.00021 13.2501C9.86218 13.2501 10.6888 12.9076 11.2983 12.2981C11.9079 11.6886 12.2503 10.862 12.2503 10C12.2503 9.13803 11.9079 8.31137 11.2983 7.70186C10.6888 7.09236 9.86218 6.74994 9.00021 6.74994ZM7.05018 10C7.05018 9.48282 7.25563 8.98682 7.62133 8.62112C7.98703 8.25542 8.48303 8.04997 9.00021 8.04997C9.51739 8.04997 10.0134 8.25542 10.3791 8.62112C10.7448 8.98682 10.9502 9.48282 10.9502 10C10.9502 10.5172 10.7448 11.0132 10.3791 11.3789C10.0134 11.7446 9.51739 11.95 9.00021 11.95C8.48303 11.95 7.98703 11.7446 7.62133 11.3789C7.25563 11.0132 7.05018 10.5172 7.05018 10Z" fill="white"/>
<path fill-rule="evenodd" clip-rule="evenodd" d="M8.97834 0.683167C8.59267 0.683167 8.27113 0.683166 8.00766 0.7005C7.73831 0.711348 7.47264 0.767 7.22158 0.86517C6.93232 0.98485 6.66948 1.16034 6.44805 1.38161C6.22663 1.60289 6.05096 1.86562 5.93109 2.15479C5.80542 2.45813 5.77162 2.7788 5.75775 3.12721C5.7562 3.2546 5.7224 3.37952 5.65951 3.4903C5.59661 3.60109 5.50667 3.69414 5.39808 3.76076C5.28613 3.8217 5.16055 3.85327 5.03308 3.85251C4.90562 3.85176 4.78042 3.8187 4.6692 3.75642C4.36066 3.59349 4.06599 3.46262 3.74012 3.41928C3.4298 3.37846 3.11447 3.39917 2.81216 3.48021C2.50984 3.56126 2.22644 3.70106 1.97815 3.89162C1.76789 4.06017 1.58717 4.26257 1.44341 4.4905C1.29607 4.71064 1.13487 4.98884 0.942466 5.32252L0.920798 5.36065C0.727528 5.69432 0.567192 5.97253 0.451057 6.21C0.329721 6.45787 0.234386 6.70228 0.199719 6.97268C0.117037 7.59928 0.286629 8.23307 0.671194 8.73465C0.871398 8.99552 1.13227 9.18532 1.42694 9.37079C1.53669 9.43586 1.62813 9.52773 1.69271 9.63777C1.75728 9.74782 1.79287 9.87245 1.79615 10C1.79287 10.1276 1.75728 10.2522 1.69271 10.3622C1.62813 10.4723 1.53669 10.5641 1.42694 10.6292C1.13227 10.8147 0.872264 11.0045 0.671194 11.2654C0.480625 11.5136 0.340827 11.797 0.259782 12.0994C0.178738 12.4017 0.158034 12.717 0.198852 13.0273C0.234386 13.2977 0.328854 13.5421 0.45019 13.79C0.567192 14.0275 0.727528 14.3057 0.920798 14.6394L0.942466 14.6775C1.13487 15.0112 1.29607 15.2894 1.44341 15.5095C1.59681 15.7374 1.76148 15.9428 1.97815 16.1075C2.22638 16.2982 2.50974 16.4382 2.81206 16.5194C3.11438 16.6006 3.42974 16.6214 3.74012 16.5807C4.06599 16.5374 4.36066 16.4074 4.6692 16.2436C4.78032 16.1815 4.90535 16.1485 5.03265 16.1477C5.15995 16.147 5.28537 16.1785 5.39721 16.2392C5.50669 16.305 5.59742 16.3979 5.66071 16.5088C5.72399 16.6197 5.75771 16.7451 5.75862 16.8728C5.77162 17.2212 5.80542 17.5419 5.93196 17.8452C6.05164 18.1345 6.22712 18.3973 6.4484 18.6187C6.66968 18.8402 6.9324 19.0158 7.22158 19.1357C7.47292 19.2397 7.73292 19.2804 8.00766 19.2986C8.27113 19.3168 8.59267 19.3168 8.97834 19.3168H9.02168C9.40735 19.3168 9.72889 19.3168 9.99236 19.2995C10.268 19.2804 10.5271 19.2397 10.7784 19.1348C11.0677 19.0152 11.3305 18.8397 11.552 18.6184C11.7734 18.3971 11.9491 18.1344 12.0689 17.8452C12.1946 17.5419 12.2284 17.2212 12.2423 16.8728C12.2437 16.7453 12.2774 16.6202 12.3403 16.5092C12.4032 16.3983 12.4932 16.3051 12.6019 16.2384C12.714 16.1776 12.8396 16.1461 12.9671 16.1471C13.0945 16.148 13.2197 16.1812 13.3308 16.2436C13.6394 16.4065 13.934 16.5374 14.2599 16.5799C14.8865 16.6625 15.5203 16.4929 16.0219 16.1084C16.2385 15.942 16.4032 15.7374 16.5566 15.5095C16.704 15.2894 16.8652 15.0112 17.0576 14.6775L17.0792 14.6394C17.2725 14.3057 17.4328 14.0275 17.549 13.79C17.6703 13.5421 17.7656 13.2969 17.8003 13.0273C17.883 12.4007 17.7134 11.7669 17.3288 11.2654C17.1286 11.0045 16.8678 10.8147 16.5731 10.6292C16.4633 10.5641 16.3719 10.4723 16.3073 10.3622C16.2427 10.2522 16.2072 10.1276 16.2039 10C16.2039 9.75906 16.3356 9.51986 16.5731 9.37079C16.8678 9.18532 17.1278 8.99552 17.3288 8.73465C17.5194 8.48635 17.6592 8.20296 17.7402 7.90064C17.8213 7.59832 17.842 7.283 17.8012 6.97268C17.7603 6.70626 17.6754 6.4485 17.5498 6.21C17.4018 5.92207 17.2449 5.63882 17.0792 5.36065L17.0576 5.32252C16.8993 5.04005 16.7322 4.76257 16.5566 4.4905C16.4128 4.26288 16.2321 4.06078 16.0219 3.89249C15.7736 3.70177 15.4903 3.56182 15.188 3.48062C14.8856 3.39943 14.5703 3.37859 14.2599 3.41928C13.934 3.46262 13.6394 3.59262 13.3308 3.75642C13.2197 3.81854 13.0947 3.85152 12.9674 3.85227C12.8401 3.85303 12.7147 3.82155 12.6028 3.76076C12.4939 3.69435 12.4036 3.60139 12.3404 3.49059C12.2772 3.37979 12.2431 3.25476 12.2414 3.12721C12.2284 2.7788 12.1946 2.45813 12.0681 2.15479C11.9484 1.86554 11.7729 1.60269 11.5516 1.38127C11.3303 1.15984 11.0676 0.984177 10.7784 0.864303C10.5271 0.760301 10.2671 0.719567 9.99236 0.701367C9.72889 0.683167 9.40735 0.683167 9.02168 0.683167H8.97834ZM7.71906 2.06552C7.78579 2.03779 7.88719 2.01266 8.09606 1.99792C8.31013 1.98319 8.58747 1.98319 9.00001 1.98319C9.41255 1.98319 9.68989 1.98319 9.90396 1.99792C10.1128 2.01266 10.2142 2.03779 10.281 2.06552C10.547 2.17559 10.7576 2.3862 10.8677 2.65227C10.9024 2.73547 10.931 2.86634 10.9422 3.17574C10.9682 3.86216 11.3227 4.52344 11.9519 4.88658C12.5811 5.24972 13.3308 5.22632 13.9384 4.90564C14.2122 4.76091 14.3396 4.72017 14.4298 4.70891C14.7145 4.67128 15.0026 4.74828 15.2306 4.92298C15.2878 4.96718 15.3606 5.04258 15.4776 5.21592C15.5981 5.39445 15.7367 5.63452 15.943 5.9916C16.1493 6.34867 16.2871 6.58961 16.3815 6.78201C16.4743 6.97008 16.5029 7.07062 16.5115 7.14255C16.5492 7.42731 16.4722 7.71536 16.2975 7.94336C16.242 8.0153 16.1432 8.10543 15.8815 8.2701C15.2991 8.63584 14.9039 9.27372 14.9039 10C14.9039 10.7263 15.2991 11.3642 15.8815 11.7299C16.1432 11.8946 16.242 11.9847 16.2975 12.0566C16.4725 12.2846 16.5488 12.5723 16.5115 12.8575C16.5029 12.9294 16.4734 13.0308 16.3815 13.218C16.2871 13.4113 16.1493 13.6513 15.943 14.0084C15.7367 14.3655 15.5972 14.6056 15.4776 14.7841C15.3606 14.9574 15.2878 15.0328 15.2306 15.077C15.0026 15.2517 14.7145 15.3287 14.4298 15.2911C14.3396 15.2798 14.2131 15.2391 13.9384 15.0944C13.3317 14.7737 12.5811 14.7494 11.9519 15.1126C11.3227 15.4757 10.9682 16.1378 10.9422 16.8243C10.931 17.1337 10.9024 17.2645 10.8677 17.3477C10.8133 17.4793 10.7334 17.5988 10.6327 17.6995C10.5321 17.8002 10.4125 17.88 10.281 17.9345C10.2142 17.9622 10.1128 17.9873 9.90396 18.0021C9.68989 18.0168 9.41255 18.0168 9.00001 18.0168C8.58747 18.0168 8.31013 18.0168 8.09606 18.0021C7.88719 17.9873 7.78579 17.9622 7.71906 17.9345C7.5875 17.88 7.46796 17.8002 7.36728 17.6995C7.2666 17.5988 7.18676 17.4793 7.13231 17.3477C7.09764 17.2645 7.06904 17.1337 7.05778 16.8243C7.03178 16.1378 6.6773 15.4766 6.04809 15.1134C5.41888 14.7503 4.6692 14.7737 4.06166 15.0944C3.78778 15.2391 3.66038 15.2798 3.57025 15.2911C3.28548 15.3287 2.99744 15.2517 2.76943 15.077C2.71223 15.0328 2.63943 14.9574 2.52243 14.7841C2.35939 14.5304 2.20418 14.2717 2.05702 14.0084C1.85075 13.6513 1.71295 13.4104 1.61848 13.218C1.52574 13.0299 1.49714 12.9294 1.48848 12.8575C1.45085 12.5727 1.52785 12.2846 1.70255 12.0566C1.75801 11.9847 1.85682 11.8946 2.11855 11.7299C2.70096 11.3642 3.09617 10.7263 3.09617 10C3.09617 9.27372 2.70096 8.63584 2.11855 8.2701C1.85682 8.10543 1.75801 8.0153 1.70255 7.94336C1.52785 7.71536 1.45085 7.42731 1.48848 7.14255C1.49714 7.07062 1.52661 6.96921 1.61848 6.78201C1.71295 6.58874 1.85075 6.34867 2.05702 5.9916C2.26329 5.63452 2.40283 5.39445 2.52243 5.21592C2.63943 5.04258 2.71223 4.96718 2.76943 4.92298C2.99744 4.74828 3.28548 4.67128 3.57025 4.70891C3.66038 4.72017 3.78692 4.76091 4.06166 4.90564C4.66833 5.22632 5.41888 5.25058 6.04809 4.88658C6.6773 4.52344 7.03178 3.86216 7.05778 3.17574C7.06904 2.86634 7.09764 2.73547 7.13231 2.65227C7.24238 2.3862 7.45298 2.17559 7.71906 2.06552Z" fill="white"/>
</svg>
