<svg width="19" height="19" viewBox="0 0 19 19" fill="none" xmlns="http://www.w3.org/2000/svg">
<path d="M4.4 14.1078H14.6M4.4 10.7078H14.6M18 5.90533V15.8078C18 16.2587 17.8209 16.6911 17.5021 17.0099C17.1833 17.3287 16.7509 17.5078 16.3 17.5078H2.7C2.24913 17.5078 1.81673 17.3287 1.49792 17.0099C1.17911 16.6911 1 16.2587 1 15.8078V5.90533C1.00137 5.56631 1.10407 5.23544 1.29492 4.95523C1.48576 4.67502 1.75603 4.45827 2.071 4.33283L8.871 1.61283C9.27491 1.45197 9.72509 1.45197 10.129 1.61283L16.929 4.33283C17.244 4.45827 17.5142 4.67502 17.7051 4.95523C17.8959 5.23544 17.9986 5.56631 18 5.90533Z" stroke="#F6F5F8" stroke-width="2" stroke-linecap="round" stroke-linejoin="round"/>
<path d="M4.3999 7.30786H14.5999V17.5079H4.3999V7.30786Z" stroke="#F6F5F8" stroke-width="2" stroke-linecap="round" stroke-linejoin="round"/>
</svg>
